<svg width="24" height="24" viewBox="0 0 24 24" fill="none" xmlns="http://www.w3.org/2000/svg">
<path d="M9.32007 6.5L11.8801 3.94L14.4401 6.5" stroke="#6A6F7D" stroke-width="1.5" stroke-linecap="round" stroke-linejoin="round"/>
<path d="M11.8799 14.18V4.01001" stroke="#6A6F7D" stroke-width="1.5" stroke-linecap="round" stroke-linejoin="round"/>
<path d="M4.00005 12C3.95031 13.0638 4.12319 14.1262 4.50763 15.1193C4.89207 16.1125 5.4796 17.0144 6.23263 17.7674C6.98565 18.5204 7.88758 19.108 8.88071 19.4924C9.87383 19.8769 10.9363 20.0497 12 20C13.0638 20.0497 14.1263 19.8769 15.1194 19.4924C16.1125 19.108 17.0144 18.5204 17.7675 17.7674C18.5205 17.0144 19.108 16.1125 19.4925 15.1193C19.8769 14.1262 20.0498 13.0638 20 12" stroke="#6A6F7D" stroke-width="1.5" stroke-linecap="round" stroke-linejoin="round"/>
</svg>
