<svg width="23" height="24" viewBox="0 0 23 24" fill="none" xmlns="http://www.w3.org/2000/svg">
<path d="M22.5489 11.855L11.8619 1.17297C11.7285 1.04178 11.549 0.968262 11.3619 0.968262C11.1748 0.968262 10.9953 1.04178 10.8619 1.17297L0.170903 11.855C0.0628614 11.9919 0.00882386 12.1637 0.0190473 12.3378C0.0292708 12.5119 0.103042 12.6762 0.226365 12.7995C0.349687 12.9228 0.513984 12.9966 0.688088 13.0068C0.862192 13.017 1.03399 12.963 1.1709 12.855L11.3549 2.68297L21.5379 12.872C21.6748 12.98 21.8466 13.034 22.0207 13.0238C22.1948 13.0136 22.3591 12.9398 22.4824 12.8165C22.6058 12.6932 22.6795 12.5289 22.6898 12.3548C22.7 12.1807 22.6459 12.0089 22.5379 11.872L22.5489 11.855Z" fill="#6A6F7D"/>
<path d="M18.4809 22.34H14.9179V15.216H7.79291V22.341H4.23091V12.366L2.80591 13.791V22.341C2.80591 22.7189 2.95604 23.0814 3.22328 23.3486C3.49052 23.6159 3.85297 23.766 4.23091 23.766H9.21791V16.64H13.4929V23.765H18.4799C18.8578 23.765 19.2203 23.6149 19.4875 23.3476C19.7548 23.0804 19.9049 22.7179 19.9049 22.34V13.62L18.4799 12.195L18.4809 22.34Z" fill="#6A6F7D"/>
</svg>
